HIERARCHY
ROOT mixamorig:Hips
{
	OFFSET -0.000008 104.274872 1.554316
	CHANNELS 6 Xposition Yposition Zposition Xrotation Yrotation Zrotation
	JOINT mixamorig:Spine
	{
		OFFSET -0.000005 10.181595 0.131519
		CHANNELS 6 Xposition Yposition Zposition Xrotation Yrotation Zrotation
		JOINT mixamorig:Spine1
		{
			OFFSET -0.000000 9.893959 -1.470707
			CHANNELS 6 Xposition Yposition Zposition Xrotation Yrotation Zrotation
			JOINT mixamorig:Spine2
			{
				OFFSET -0.000000 9.220757 -1.370641
				CHANNELS 6 Xposition Yposition Zposition Xrotation Yrotation Zrotation
				JOINT mixamorig:Neck
				{
					OFFSET 0.000001 16.740417 -2.049036
					CHANNELS 6 Xposition Yposition Zposition Xrotation Yrotation Zrotation
					JOINT mixamorig:Head
					{
						OFFSET 0.000000 9.617874 1.685006
						CHANNELS 6 Xposition Yposition Zposition Xrotation Yrotation Zrotation
						JOINT mixamorig:HeadTop_End
						{
							OFFSET 0.000002 22.037354 7.501101
							CHANNELS 6 Xposition Yposition Zposition Xrotation Yrotation Zrotation
							End Site
							{
								OFFSET 0.000168 2310.654297 -282.823242
							}
						}
					}
				}
				JOINT mixamorig:RightShoulder
				{
					OFFSET -4.569970 11.014908 -2.160885
					CHANNELS 6 Xposition Yposition Zposition Xrotation Yrotation Zrotation
					JOINT mixamorig:RightArm
					{
						OFFSET -10.592851 -0.524811 -2.232101
						CHANNELS 6 Xposition Yposition Zposition Xrotation Yrotation Zrotation
						JOINT mixamorig:RightForeArm
						{
							OFFSET -27.841511 0.000031 -0.000004
							CHANNELS 6 Xposition Yposition Zposition Xrotation Yrotation Zrotation
							JOINT mixamorig:RightHand
							{
								OFFSET -28.328831 -0.000015 0.000015
								CHANNELS 6 Xposition Yposition Zposition Xrotation Yrotation Zrotation
								JOINT mixamorig:RightHandThumb1
								{
									OFFSET -2.464806 -1.573990 2.681852
									CHANNELS 6 Xposition Yposition Zposition Xrotation Yrotation Zrotation
									JOINT mixamorig:RightHandThumb2
									{
										OFFSET -3.215179 -1.872803 1.924282
										CHANNELS 6 Xposition Yposition Zposition Xrotation Yrotation Zrotation
										JOINT mixamorig:RightHandThumb3
										{
											OFFSET -2.654831 -1.527969 1.512609
											CHANNELS 6 Xposition Yposition Zposition Xrotation Yrotation Zrotation
											JOINT mixamorig:RightHandThumb4
											{
												OFFSET -2.018814 -1.152008 1.108052
												CHANNELS 6 Xposition Yposition Zposition Xrotation Yrotation Zrotation
												End Site
												{
													OFFSET -188.809540 -114.533607 132.431396
												}
											}
										}
									}
								}
								JOINT mixamorig:RightHandIndex1
								{
									OFFSET -9.108284 -0.517868 2.259835
									CHANNELS 6 Xposition Yposition Zposition Xrotation Yrotation Zrotation
									JOINT mixamorig:RightHandIndex2
									{
										OFFSET -3.699989 0.000000 0.001215
										CHANNELS 6 Xposition Yposition Zposition Xrotation Yrotation Zrotation
										JOINT mixamorig:RightHandIndex3
										{
											OFFSET -2.850006 0.000031 -0.000522
											CHANNELS 6 Xposition Yposition Zposition Xrotation Yrotation Zrotation
											JOINT mixamorig:RightHandIndex4
											{
												OFFSET -2.772186 -0.000015 -0.000020
												CHANNELS 6 Xposition Yposition Zposition Xrotation Yrotation Zrotation
												End Site
												{
													OFFSET -277.218445 0.000000 -0.050231
												}
											}
										}
									}
								}
								JOINT mixamorig:RightHandMiddle1
								{
									OFFSET -9.532516 -0.000031 -0.000023
									CHANNELS 6 Xposition Yposition Zposition Xrotation Yrotation Zrotation
									JOINT mixamorig:RightHandMiddle2
									{
										OFFSET -3.700005 -0.000015 0.003713
										CHANNELS 6 Xposition Yposition Zposition Xrotation Yrotation Zrotation
										JOINT mixamorig:RightHandMiddle3
										{
											OFFSET -2.949974 0.000015 -0.002054
											CHANNELS 6 Xposition Yposition Zposition Xrotation Yrotation Zrotation
											JOINT mixamorig:RightHandMiddle4
											{
												OFFSET -2.946640 0.000000 -0.000156
												CHANNELS 6 Xposition Yposition Zposition Xrotation Yrotation Zrotation
												End Site
												{
													OFFSET -294.664337 0.000000 -0.113670
												}
											}
										}
									}
								}
								JOINT mixamorig:RightHandRing1
								{
									OFFSET -9.103600 -0.043076 -1.865134
									CHANNELS 6 Xposition Yposition Zposition Xrotation Yrotation Zrotation
									JOINT mixamorig:RightHandRing2
									{
										OFFSET -3.379288 0.000000 -0.001055
										CHANNELS 6 Xposition Yposition Zposition Xrotation Yrotation Zrotation
										JOINT mixamorig:RightHandRing3
										{
											OFFSET -2.889687 -0.000015 0.000379
											CHANNELS 6 Xposition Yposition Zposition Xrotation Yrotation Zrotation
											JOINT mixamorig:RightHandRing4
											{
												OFFSET -2.638809 -0.000015 0.000941
												CHANNELS 6 Xposition Yposition Zposition Xrotation Yrotation Zrotation
												End Site
												{
													OFFSET -263.880371 0.000000 0.516020
												}
											}
										}
									}
								}
								JOINT mixamorig:RightHandPinky1
								{
									OFFSET -8.076683 -0.486710 -3.806280
									CHANNELS 6 Xposition Yposition Zposition Xrotation Yrotation Zrotation
									JOINT mixamorig:RightHandPinky2
									{
										OFFSET -3.600014 -0.000015 -0.003747
										CHANNELS 6 Xposition Yposition Zposition Xrotation Yrotation Zrotation
										JOINT mixamorig:RightHandPinky3
										{
											OFFSET -2.099983 0.000000 -0.005739
											CHANNELS 6 Xposition Yposition Zposition Xrotation Yrotation Zrotation
											JOINT mixamorig:RightHandPinky4
											{
												OFFSET -2.115768 -0.000031 -0.003680
												CHANNELS 6 Xposition Yposition Zposition Xrotation Yrotation Zrotation
												End Site
												{
													OFFSET -211.577087 0.000000 -0.350686
												}
											}
										}
									}
								}
							}
						}
					}
				}
				JOINT mixamorig:LeftShoulder
				{
					OFFSET 4.570447 11.014725 -2.160855
					CHANNELS 6 Xposition Yposition Zposition Xrotation Yrotation Zrotation
					JOINT mixamorig:LeftArm
					{
						OFFSET 10.592371 -0.524597 -2.232119
						CHANNELS 6 Xposition Yposition Zposition Xrotation Yrotation Zrotation
						JOINT mixamorig:LeftForeArm
						{
							OFFSET 27.841532 -0.000031 0.000026
							CHANNELS 6 Xposition Yposition Zposition Xrotation Yrotation Zrotation
							JOINT mixamorig:LeftHand
							{
								OFFSET 28.328846 -0.000061 0.000022
								CHANNELS 6 Xposition Yposition Zposition Xrotation Yrotation Zrotation
								JOINT mixamorig:LeftHandThumb1
								{
									OFFSET 2.466141 -1.576172 2.681732
									CHANNELS 6 Xposition Yposition Zposition Xrotation Yrotation Zrotation
									JOINT mixamorig:LeftHandThumb2
									{
										OFFSET 3.217812 -1.872070 1.916482
										CHANNELS 6 Xposition Yposition Zposition Xrotation Yrotation Zrotation
										JOINT mixamorig:LeftHandThumb3
										{
											OFFSET 2.656029 -1.528778 1.514513
											CHANNELS 6 Xposition Yposition Zposition Xrotation Yrotation Zrotation
											JOINT mixamorig:LeftHandThumb4
											{
												OFFSET 2.020889 -1.154053 1.115139
												CHANNELS 6 Xposition Yposition Zposition Xrotation Yrotation Zrotation
												End Site
												{
													OFFSET 190.885437 -115.081749 130.048782
												}
											}
										}
									}
								}
								JOINT mixamorig:LeftHandIndex1
								{
									OFFSET 9.109314 -0.518021 2.259871
									CHANNELS 6 Xposition Yposition Zposition Xrotation Yrotation Zrotation
									JOINT mixamorig:LeftHandIndex2
									{
										OFFSET 3.699989 0.000000 -0.000322
										CHANNELS 6 Xposition Yposition Zposition Xrotation Yrotation Zrotation
										JOINT mixamorig:LeftHandIndex3
										{
											OFFSET 2.850006 0.000000 0.000352
											CHANNELS 6 Xposition Yposition Zposition Xrotation Yrotation Zrotation
											JOINT mixamorig:LeftHandIndex4
											{
												OFFSET 2.774864 -0.000031 -0.000027
												CHANNELS 6 Xposition Yposition Zposition Xrotation Yrotation Zrotation
												End Site
												{
													OFFSET 277.486267 0.000000 -0.009857
												}
											}
										}
									}
								}
								JOINT mixamorig:LeftHandMiddle1
								{
									OFFSET 9.533394 0.000061 0.000044
									CHANNELS 6 Xposition Yposition Zposition Xrotation Yrotation Zrotation
									JOINT mixamorig:LeftHandMiddle2
									{
										OFFSET 3.699989 -0.000015 -0.000231
										CHANNELS 6 Xposition Yposition Zposition Xrotation Yrotation Zrotation
										JOINT mixamorig:LeftHandMiddle3
										{
											OFFSET 2.949997 -0.000015 -0.000059
											CHANNELS 6 Xposition Yposition Zposition Xrotation Yrotation Zrotation
											JOINT mixamorig:LeftHandMiddle4
											{
												OFFSET 2.952896 0.000031 0.000063
												CHANNELS 6 Xposition Yposition Zposition Xrotation Yrotation Zrotation
												End Site
												{
													OFFSET 295.289337 0.000000 0.022810
												}
											}
										}
									}
								}
								JOINT mixamorig:LeftHandRing1
								{
									OFFSET 9.104523 -0.042999 -1.865074
									CHANNELS 6 Xposition Yposition Zposition Xrotation Yrotation Zrotation
									JOINT mixamorig:LeftHandRing2
									{
										OFFSET 3.150009 -0.000031 0.000043
										CHANNELS 6 Xposition Yposition Zposition Xrotation Yrotation Zrotation
										JOINT mixamorig:LeftHandRing3
										{
											OFFSET 2.949982 -0.000015 0.000040
											CHANNELS 6 Xposition Yposition Zposition Xrotation Yrotation Zrotation
											JOINT mixamorig:LeftHandRing4
											{
												OFFSET 2.644348 0.000000 0.000057
												CHANNELS 6 Xposition Yposition Zposition Xrotation Yrotation Zrotation
												End Site
												{
													OFFSET 264.434631 0.000000 0.012105
												}
											}
										}
									}
								}
								JOINT mixamorig:LeftHandPinky1
								{
									OFFSET 8.077789 -0.486847 -3.806259
									CHANNELS 6 Xposition Yposition Zposition Xrotation Yrotation Zrotation
									JOINT mixamorig:LeftHandPinky2
									{
										OFFSET 3.599953 0.000031 0.014727
										CHANNELS 6 Xposition Yposition Zposition Xrotation Yrotation Zrotation
										JOINT mixamorig:LeftHandPinky3
										{
											OFFSET 2.100021 0.000015 0.007705
											CHANNELS 6 Xposition Yposition Zposition Xrotation Yrotation Zrotation
											JOINT mixamorig:LeftHandPinky4
											{
												OFFSET 2.125504 0.000031 0.007517
												CHANNELS 6 Xposition Yposition Zposition Xrotation Yrotation Zrotation
												End Site
												{
													OFFSET 212.550781 0.000000 0.625752
												}
											}
										}
									}
								}
							}
						}
					}
				}
			}
		}
	}
	JOINT mixamorig:RightUpLeg
	{
		OFFSET -8.207787 -6.751648 -1.599560
		CHANNELS 6 Xposition Yposition Zposition Xrotation Yrotation Zrotation
		JOINT mixamorig:RightLeg
		{
			OFFSET -0.000002 -44.370117 0.345942
			CHANNELS 6 Xposition Yposition Zposition Xrotation Yrotation Zrotation
			JOINT mixamorig:RightFoot
			{
				OFFSET 0.000003 -44.423679 -3.043532
				CHANNELS 6 Xposition Yposition Zposition Xrotation Yrotation Zrotation
				JOINT mixamorig:RightToeBase
				{
					OFFSET -0.000002 -8.728671 10.710558
					CHANNELS 6 Xposition Yposition Zposition Xrotation Yrotation Zrotation
					JOINT mixamorig:RightToe_End
					{
						OFFSET -0.000001 -0.000679 9.278119
						CHANNELS 6 Xposition Yposition Zposition Xrotation Yrotation Zrotation
						End Site
						{
							OFFSET 0.000000 -0.067690 927.812134
						}
					}
				}
			}
		}
	}
	JOINT mixamorig:LeftUpLeg
	{
		OFFSET 8.207793 -6.751686 -1.599556
		CHANNELS 6 Xposition Yposition Zposition Xrotation Yrotation Zrotation
		JOINT mixamorig:LeftLeg
		{
			OFFSET -0.000004 -44.370014 0.346954
			CHANNELS 6 Xposition Yposition Zposition Xrotation Yrotation Zrotation
			JOINT mixamorig:LeftFoot
			{
				OFFSET -0.000001 -44.423672 -3.044401
				CHANNELS 6 Xposition Yposition Zposition Xrotation Yrotation Zrotation
				JOINT mixamorig:LeftToeBase
				{
					OFFSET -0.000002 -8.728669 10.710558
					CHANNELS 6 Xposition Yposition Zposition Xrotation Yrotation Zrotation
					JOINT mixamorig:LeftToe_End
					{
						OFFSET -0.000003 -0.000679 9.278133
						CHANNELS 6 Xposition Yposition Zposition Xrotation Yrotation Zrotation
						End Site
						{
							OFFSET 0.000000 -0.068021 927.813477
						}
					}
				}
			}
		}
	}
}
MOTION
Frames: 3
Frame Time: 0.033333
0.000006 104.270477 1.554256 0.000010 0.000003 -0.000113 -0.000005 10.181587 0.131522 0.000001 -0.000003 0.000084 -0.000000 9.893967 -1.470711 0.000001 0.000000 -0.000000 -0.000000 9.220802 -1.370642 0.000000 -0.000000 -0.000000 0.000001 16.740433 -2.049030 0.000000 -0.000000 -0.000000 0.000000 9.617859 1.685014 0.000000 0.000000 0.000000 0.000002 22.037384 7.501101 0.000000 -0.000000 0.000000 -4.569968 11.014880 -2.160881 0.000008 0.000001 -0.000038 -10.592875 -0.524756 -2.231913 76.045926 28.262216 -22.273575 -27.841518 0.000016 0.000531 -52.329563 107.290128 67.444450 -28.328829 0.000019 0.000024 -0.000320 -0.000045 0.000007 -2.464427 -1.573759 2.682323 -49.091705 -166.166031 -13.057665 -3.215278 -1.872576 1.924645 154.413911 31.659921 4.301194 -2.654959 -1.527895 1.513089 146.784727 26.474587 -42.308722 -2.018823 -1.151986 1.108057 -0.000002 -0.000001 0.000004 -9.108390 -0.517553 2.260113 95.948141 16.469082 -18.296946 -3.700090 0.000313 0.001480 90.137884 14.541577 -14.552311 -2.850085 0.000354 -0.000282 90.461819 11.419070 -11.509923 -2.772168 -0.000015 -0.000021 0.000002 0.000001 -0.000001 -9.532591 0.000277 0.000246 95.727874 15.567657 -17.340129 -3.700077 0.000333 0.003973 94.251905 11.794849 -12.595654 -2.950036 0.000343 -0.001807 96.689080 10.641681 -11.945752 -2.946628 0.000001 -0.000157 0.000000 -0.000000 -0.000002 -9.103694 -0.042744 -1.864868 97.707017 15.487391 -17.641158 -3.379311 0.000345 -0.000821 94.720811 6.480996 -7.054983 -2.889732 0.000358 0.000632 97.667511 4.540960 -5.242771 -2.638814 -0.000028 0.000936 -0.000002 0.000001 -0.000001 -8.076745 -0.486387 -3.805981 97.029783 16.672927 -18.649454 -3.600031 0.000306 -0.003488 97.115359 5.264697 -5.576829 -2.100003 0.000339 -0.005475 96.195387 2.136839 -2.149475 -2.115772 -0.000054 -0.003682 -0.000004 0.000002 -0.000002 4.570446 11.014691 -2.160851 -0.000018 0.000010 -0.000021 10.592405 -0.524480 -2.232350 72.715738 -14.294401 10.547660 27.841827 0.000071 -0.000197 103.348200 -73.142686 86.367284 28.328840 -0.000028 0.000021 0.000020 -0.000088 -0.000000 2.466051 -1.576174 2.681902 -29.261101 158.653533 -31.295613 3.217881 -1.871846 1.916403 161.653584 -22.733310 39.398170 2.656106 -1.528707 1.514527 124.784496 -33.357182 63.527084 2.020891 -1.154065 1.115143 0.000002 0.000001 0.000002 9.109380 -0.517896 2.259735 74.000086 -19.552998 14.786318 3.700024 0.000089 -0.000445 67.135978 -21.250248 14.205043 2.850054 0.000114 0.000225 64.532133 -15.545543 9.850042 2.774876 -0.000032 -0.000032 0.000001 0.000000 -0.000002 9.533463 0.000168 -0.000081 73.378177 -17.836568 13.330652 3.700047 0.000122 -0.000370 73.722405 -16.452903 12.370800 2.950059 0.000125 -0.000186 72.335344 -17.763857 13.036639 2.952874 -0.000045 0.000065 -0.000000 0.000000 -0.000000 9.104587 -0.042893 -1.865231 71.002712 -15.296661 10.944846 3.150052 0.000169 -0.000107 75.529393 -11.034215 8.560109 2.950032 0.000151 -0.000079 78.250083 -11.960051 9.741750 2.644310 0.000017 0.000059 -0.000000 -0.000001 -0.000000 8.077848 -0.486760 -3.806396 67.046626 -15.760159 10.874128 3.599979 0.000150 0.014554 69.547787 -11.629211 8.441503 2.100033 0.000167 0.007555 75.026766 -10.715199 8.603410 2.125511 -0.000015 0.007517 0.000002 0.000002 0.000000 -8.207786 -6.751667 -1.599560 -0.077001 -0.000003 0.000080 -0.000002 -44.370110 0.345938 0.153719 -0.000000 -0.000000 0.000000 -44.423679 -3.043532 -0.076700 0.000000 -0.000002 -0.000006 -8.728667 10.710559 -0.000009 -0.000000 -0.000000 -0.000001 -0.000679 9.278123 0.000000 -0.000000 -0.000000 8.207792 -6.751710 -1.599556 -0.074518 -0.000003 0.000081 -0.000002 -44.370014 0.346960 0.148822 0.000002 0.000000 -0.000001 -44.423664 -3.044403 -0.074314 0.000000 -0.000002 -0.000004 -8.728671 10.710558 0.000007 -0.000000 -0.000000 0.000000 -0.000680 9.278137 -0.000000 0.000000 -0.000001 
0.000006 104.270477 1.554256 0.000010 0.000003 -0.000113 -0.000005 10.181587 0.131522 0.000001 -0.000003 0.000084 -0.000000 9.893967 -1.470711 0.000001 0.000000 -0.000000 -0.000000 9.220802 -1.370642 0.000000 -0.000000 -0.000000 0.000001 16.740433 -2.049030 0.000000 -0.000000 -0.000000 0.000000 9.617859 1.685014 0.000000 0.000000 0.000000 0.000002 22.037384 7.501101 0.000000 -0.000000 0.000000 -4.569968 11.014880 -2.160881 0.000008 0.000001 -0.000038 -10.592866 -0.524789 -2.231865 75.826376 38.380144 -30.333683 -27.841518 0.000010 0.000562 -49.565160 106.036972 63.025086 -28.328817 0.000021 0.000030 -0.000320 -0.000043 0.000008 -2.464433 -1.573708 2.682287 -53.852350 -170.791844 -27.455704 -3.215275 -1.872591 1.924652 150.958970 31.105942 3.552852 -2.654967 -1.527863 1.513080 143.645613 27.697244 -35.501483 -2.018834 -1.151999 1.108049 -0.000004 -0.000003 0.000002 -9.108372 -0.517553 2.260114 95.323076 15.616635 -17.168514 -3.700063 0.000319 0.001499 92.290991 13.646452 -14.173190 -2.850100 0.000366 -0.000263 93.074967 11.046502 -11.650785 -2.772181 -0.000013 -0.000020 -0.000004 0.000001 0.000001 -9.532586 0.000274 0.000244 94.775602 15.105307 -16.555680 -3.700078 0.000329 0.003982 94.989982 12.422996 -13.441350 -2.950057 0.000330 -0.001799 97.253547 11.654045 -13.210182 -2.946632 0.000002 -0.000161 0.000001 -0.000001 0.000000 -9.103701 -0.042758 -1.864853 94.676449 17.547541 -18.966851 -3.379329 0.000317 -0.000814 95.236360 9.453634 -10.373880 -2.889741 0.000341 0.000648 101.107311 6.712047 -8.208662 -2.638808 0.000000 0.000943 -0.000001 -0.000000 -0.000001 -8.076757 -0.486385 -3.805967 94.254247 19.654491 -20.972726 -3.600036 0.000278 -0.003502 94.610865 8.706199 -9.047671 -2.100023 0.000323 -0.005472 96.305879 4.400520 -4.672464 -2.115770 -0.000041 -0.003679 0.000001 -0.000001 -0.000002 4.570446 11.014691 -2.160851 -0.000018 0.000010 -0.000021 10.592407 -0.524477 -2.232369 72.803635 -15.789280 11.675414 27.841837 0.000030 -0.000174 103.449041 -74.773810 88.166097 28.328846 -0.000027 0.000018 0.000024 -0.000088 -0.000000 2.466264 -1.576046 2.681808 5.646911 174.258890 -106.170127 3.217901 -1.871883 1.916434 162.791985 -19.213227 51.509062 2.656097 -1.528727 1.514530 126.764513 -32.915320 68.249531 2.020879 -1.154070 1.115143 -0.000001 0.000006 0.000004 9.109389 -0.517906 2.259761 75.094679 -23.891843 18.462906 3.700046 0.000121 -0.000466 72.393633 -16.251149 11.942798 2.850041 0.000147 0.000205 71.074853 -11.763985 8.416300 2.774865 -0.000031 -0.000032 0.000000 -0.000001 -0.000000 9.533476 0.000163 -0.000080 74.961736 -22.589083 17.406466 3.700037 0.000139 -0.000372 76.681045 -13.572969 10.751514 2.950058 0.000152 -0.000198 78.050095 -11.152422 9.051282 2.952868 -0.000014 0.000062 -0.000001 -0.000002 -0.000001 9.104592 -0.042890 -1.865214 74.361082 -21.177486 16.142642 3.150036 0.000169 -0.000104 77.808224 -13.242296 10.704856 2.949998 0.000167 -0.000094 80.240420 -9.542466 8.048095 2.644317 0.000030 0.000057 0.000000 0.000001 0.000000 8.077849 -0.486757 -3.806386 70.051718 -22.482968 16.308806 3.600001 0.000130 0.014569 70.337855 -18.039559 13.149516 2.100018 0.000158 0.007554 74.035514 -11.417952 8.986508 2.125510 -0.000002 0.007515 -0.000002 0.000003 0.000000 -8.207786 -6.751667 -1.599560 -0.077001 -0.000003 0.000080 -0.000002 -44.370110 0.345938 0.153719 -0.000000 -0.000000 0.000000 -44.423679 -3.043532 -0.076700 0.000000 -0.000002 -0.000006 -8.728667 10.710559 -0.000009 -0.000000 -0.000000 -0.000001 -0.000679 9.278123 0.000000 -0.000000 -0.000000 8.207792 -6.751710 -1.599556 -0.074518 -0.000003 0.000081 -0.000002 -44.370014 0.346960 0.148822 0.000002 0.000000 -0.000001 -44.423664 -3.044403 -0.074314 0.000000 -0.000002 -0.000004 -8.728671 10.710558 0.000007 -0.000000 -0.000000 0.000000 -0.000680 9.278137 -0.000000 0.000000 -0.000001 
0.000006 104.270477 1.554256 0.000010 0.000003 -0.000113 -0.000005 10.181587 0.131522 0.000001 -0.000003 0.000084 -0.000000 9.893967 -1.470711 0.000001 0.000000 -0.000000 -0.000000 9.220802 -1.370642 0.000000 -0.000000 -0.000000 0.000001 16.740433 -2.049030 0.000000 -0.000000 -0.000000 0.000000 9.617859 1.685014 0.000000 0.000000 0.000000 0.000002 22.037384 7.501101 0.000000 -0.000000 0.000000 -4.569968 11.014880 -2.160881 0.000008 0.000001 -0.000038 -10.592859 -0.524802 -2.231842 75.649420 40.714918 -32.140613 -27.841526 -0.000003 0.000557 -49.377715 104.524598 61.419800 -28.328833 0.000021 0.000032 -0.000318 -0.000042 0.000009 -2.464436 -1.573732 2.682299 -52.727643 -169.076388 -23.646258 -3.215278 -1.872588 1.924637 151.680046 30.904482 1.474454 -2.654954 -1.527872 1.513069 143.700241 27.652412 -36.016240 -2.018834 -1.152014 1.108056 -0.000003 -0.000003 0.000002 -9.108373 -0.517560 2.260120 95.947055 15.862950 -17.626821 -3.700078 0.000319 0.001498 92.612523 14.148742 -14.777056 -2.850082 0.000344 -0.000270 92.374286 11.418879 -11.897779 -2.772188 -0.000000 -0.000024 -0.000002 -0.000002 -0.000002 -9.532586 0.000267 0.000248 95.164199 15.502555 -17.101043 -3.700069 0.000322 0.003970 95.273066 12.663736 -13.770640 -2.950074 0.000343 -0.001800 96.729296 11.751646 -13.199510 -2.946630 -0.000000 -0.000155 -0.000002 0.000000 -0.000001 -9.103703 -0.042748 -1.864846 94.667037 17.136875 -18.520195 -3.379328 0.000321 -0.000791 95.089948 8.953289 -9.801128 -2.889753 0.000360 0.000658 100.259889 6.553868 -7.897212 -2.638807 -0.000014 0.000938 0.000001 -0.000001 0.000002 -8.076761 -0.486383 -3.805973 93.658218 19.231369 -20.311191 -3.600061 0.000272 -0.003495 94.598127 8.188377 -8.487605 -2.100017 0.000332 -0.005468 95.752723 4.007505 -4.194308 -2.115783 -0.000055 -0.003677 0.000000 -0.000001 -0.000003 4.570446 11.014691 -2.160851 -0.000018 0.000010 -0.000021 10.592430 -0.524472 -2.232373 72.197080 -23.587396 17.313555 27.841824 0.000031 -0.000175 102.157364 -74.423182 86.479668 28.328840 -0.000027 0.000022 0.000024 -0.000089 -0.000000 2.466247 -1.576017 2.681817 5.434963 174.166299 -105.820476 3.217860 -1.871876 1.916430 161.886152 -19.565121 51.406090 2.656099 -1.528751 1.514529 126.408169 -32.989189 67.186044 2.020903 -1.154069 1.115150 0.000000 0.000006 0.000001 9.109361 -0.517900 2.259754 74.931239 -23.146898 17.828593 3.700052 0.000107 -0.000473 72.283168 -15.721209 11.528204 2.850049 0.000149 0.000214 71.209735 -11.340222 8.132249 2.774864 -0.000015 -0.000023 -0.000000 0.000001 0.000000 9.533451 0.000177 -0.000056 74.862111 -22.606213 17.388956 3.700036 0.000145 -0.000353 76.920129 -13.395938 10.656094 2.950042 0.000154 -0.000212 78.545700 -10.770323 8.817856 2.952874 -0.000015 0.000063 -0.000001 -0.000001 -0.000000 9.104581 -0.042893 -1.865206 74.146608 -21.309010 16.181645 3.150051 0.000165 -0.000086 78.806607 -13.411073 11.035155 2.949997 0.000166 -0.000108 81.288602 -9.442255 8.111961 2.644325 0.000046 0.000062 -0.000001 -0.000003 0.000000 8.077832 -0.486747 -3.806388 69.931247 -22.591020 16.350462 3.600011 0.000131 0.014580 70.621485 -18.263506 13.379526 2.100028 0.000165 0.007547 74.525881 -11.440858 9.083895 2.125494 0.000001 0.007513 -0.000002 0.000001 0.000001 -8.207786 -6.751667 -1.599560 -0.077001 -0.000003 0.000080 -0.000002 -44.370110 0.345938 0.153719 -0.000000 -0.000000 0.000000 -44.423679 -3.043532 -0.076700 0.000000 -0.000002 -0.000006 -8.728667 10.710559 -0.000009 -0.000000 -0.000000 -0.000001 -0.000679 9.278123 0.000000 -0.000000 -0.000000 8.207792 -6.751710 -1.599556 -0.074518 -0.000003 0.000081 -0.000002 -44.370014 0.346960 0.148822 0.000002 0.000000 -0.000001 -44.423664 -3.044403 -0.074314 0.000000 -0.000002 -0.000004 -8.728671 10.710558 0.000007 -0.000000 -0.000000 0.000000 -0.000680 9.278137 -0.000000 0.000000 -0.000001 
